<?xml version="1.0" encoding="utf-8"?>
<!-- Generator: Adobe Illustrator 26.5.0, SVG Export Plug-In . SVG Version: 6.00 Build 0)  -->
<svg version="1.1" id="Layer_1" xmlns="http://www.w3.org/2000/svg" xmlns:xlink="http://www.w3.org/1999/xlink" x="0px" y="0px"
	 viewBox="0 0 100 81.3" style="enable-background:new 0 0 100 81.3;" xml:space="preserve">
<style type="text/css">
	.st0{fill-rule:evenodd;clip-rule:evenodd;fill:#D92827;}
</style>
<g id="g1963">
	<path id="path1965" class="st0" d="M73,6.9c-2.3,10.2-3.2,15-5.1,22.4c-1.8,7.1-3.2,13.7-5.6,16.9c-2.4,3.3-5.7,4-7.9,4.2
		c-1.1,0.1-2,0.2-4.5,0.2c-2.5,0-3.3-0.1-4.5-0.2c-2.2-0.2-5.5-1-7.9-4.2c-2.4-3.2-3.8-9.8-5.6-16.9c-1.9-7.4-2.8-12.1-5.1-22.4
		c0,0-2.3,0.1-3.3,0.2c-1.4,0.1-2.4,0.2-3.6,0.4c0,0,1.3,21.1,1.9,30c0.6,9.4,1.7,25.2,2.8,37.2c0,0,1.9,0.3,5.1,0.5
		c3.4,0.2,4.9,0.2,4.9,0.2c1.4-5.3,3.1-12.6,5-15.7c1.6-2.5,4-2.8,5.4-3c2.2-0.3,4-0.3,4.8-0.3l0,0c0,0,0,0,0,0s0,0,0,0l0,0
		c0.8,0,2.7,0,4.8,0.3c1.4,0.2,3.8,0.5,5.4,3c1.9,3.1,3.7,10.4,5,15.7c0,0,1.5,0,4.9-0.2c3.2-0.2,5.1-0.5,5.1-0.5
		c1-12,2.1-27.8,2.8-37.2c0.6-8.9,1.9-30,1.9-30c-1.2-0.2-2.2-0.3-3.6-0.4C75.3,7,73,6.9,73,6.9L73,6.9z"/>
	<path id="path1967" class="st0" d="M99.6,19.3C98.2,5.9,89.3,3.1,81.4,1.8c-4-0.7-11-1.2-15.5-1.4C62,0.1,52.8,0,50,0
		S38,0.1,34,0.4c-4.5,0.2-11.5,0.7-15.5,1.4C10.7,3.1,1.8,5.9,0.4,19.3C0.1,23,0,27.7,0,32.8C0.1,41.3,0.9,47.1,1.3,51
		c0.3,2.7,1.4,10.9,2.9,15.1c2,5.8,3.8,7.5,5.9,9.2c3.9,3.2,10.3,4.1,11.6,4.4c7.2,1.3,21.8,1.5,28.3,1.5c6.4,0,21.1-0.2,28.3-1.5
		c1.4-0.2,7.8-1.2,11.6-4.4c2.1-1.7,3.9-3.4,5.9-9.2c1.5-4.2,2.6-12.4,2.9-15.1c0.4-4,1.1-9.7,1.3-18.2
		C100.1,27.7,99.9,23,99.6,19.3L99.6,19.3z M94.7,41.8c-0.8,10.7-1.7,17.1-3.1,21.7c-1.2,4.1-2.7,6.8-4.8,8.7
		c-3.6,3.3-8.6,4-11.5,4.4c-6.3,0.9-16.9,1.3-25.2,1.3c-8.3,0-18.9-0.3-25.2-1.3c-2.9-0.4-7.9-1.1-11.5-4.4c-2.2-2-3.6-4.7-4.8-8.7
		c-1.4-4.6-2.3-11-3.1-21.7C4.9,35.4,5,24.9,5.7,19.3c1.1-8.4,5.2-12.6,14.1-14.2c4.2-0.7,9.7-1.3,15-1.5C39.1,3.3,46.1,3.2,50,3.2
		c3.9,0,10.9,0.1,15.2,0.4c5.3,0.3,10.9,0.8,15,1.5c8.9,1.6,13.1,5.8,14.1,14.2C95,24.9,95.1,35.4,94.7,41.8z"/>
</g>
</svg>
