<?xml version="1.0" encoding="utf-8"?>
<!-- Generator: Adobe Illustrator 26.5.0, SVG Export Plug-In . SVG Version: 6.00 Build 0)  -->
<svg version="1.1"
	 id="Layer_1" text-rendering="geometricPrecision" shape-rendering="geometricPrecision" image-rendering="optimizeQuality"
	 xmlns="http://www.w3.org/2000/svg" xmlns:xlink="http://www.w3.org/1999/xlink" x="0px" y="0px" viewBox="0 0 2049 1665.9"
	 style="enable-background:new 0 0 2049 1665.9;" xml:space="preserve">
<style type="text/css">
	.st0{fill-rule:evenodd;clip-rule:evenodd;fill:#DA251D;}
</style>
<g id="g1963">
	<path id="path1965" class="st0" d="M1496.1,140.8c-47.1,210-65.7,306.5-103.9,458.5c-36.7,145.9-65.1,281.3-114.3,347
		c-49.9,66.6-116.5,81.1-161.8,86.2c-23.5,2.6-40.6,3.8-91.4,4c-50.8-0.2-67.9-1.4-91.4-4c-45.3-5.1-111.9-19.6-161.8-86.2
		c-49.2-65.7-77.6-201.1-114.4-347C618.7,447.3,600.1,350.8,553,140.8c0,0-47,1.8-67.8,3.3c-28.1,2-50.1,4.4-74.1,7.6
		c0,0,27,431.9,39.3,614.9c12.9,192.5,35.5,516.8,56.7,761.7c0,0,39.4,6.3,104.9,10c68.9,4,99.5,4.4,99.5,4.4
		c28.3-107.9,63.4-257.6,103.2-321.4c32.4-51.9,82.2-57.4,110.5-61.3c44.4-6,81.8-7,99.2-6.4l0,0c0.1,0,0.1,0,0.2,0
		c0.1,0,0.1,0,0.2,0l0,0c17.3-0.6,54.8,0.4,99.2,6.4c28.2,3.9,78.1,9.4,110.5,61.3c39.8,63.9,74.9,213.6,103.2,321.4
		c0,0,30.6-0.5,99.5-4.4c65.5-3.8,104.9-10,104.9-10c21.2-244.9,43.8-569.2,56.7-761.7c12.2-183,39.2-614.9,39.2-614.9
		c-24-3.2-46-5.6-74.1-7.6C1543,142.7,1496.1,140.8,1496.1,140.8L1496.1,140.8z"/>
	<path id="path1967" class="st0" d="M2040.2,395.8c-27.9-274.3-210.9-332.2-371.5-359.2c-81-13.6-224.8-25.1-317.1-28.9
		C1271,2.6,1080.9,0,1024.5,0C968.1,0,778,2.6,697.4,7.8c-92.2,3.8-236.1,15.3-317,28.9C219.7,63.6,36.7,121.5,8.8,395.8
		C1.2,470.5-1,568,0.4,673c2.3,173.8,17.2,291.2,25.8,372.5c5.9,55.8,29.2,223.4,59.1,310.1c41.1,119.2,78,153.9,121.5,189.3
		c79.5,64.9,210.5,84.8,238.4,89.8c147.9,26.6,447.2,31.4,579.3,31.2c132.1,0.2,431.5-4.6,579.3-31.2c27.9-5,158.9-25,238.4-89.8
		c43.5-35.5,80.4-70.2,121.5-189.3c29.9-86.7,53.2-254.4,59.1-310.1c8.5-81.2,23.5-198.6,25.7-372.5
		C2050,568,2047.8,470.5,2040.2,395.8L2040.2,395.8z M1939.7,856.6c-16.2,219.1-35.7,350.5-63.6,445.3
		c-24.5,83-54.8,138.7-99.1,178.8c-73.9,66.9-175.7,81.2-235.4,90.1c-129,19.1-346.3,25.8-517.1,25.9c-170.8-0.1-388-6.7-517.1-25.9
		c-59.7-8.9-161.5-23.2-235.4-90.1c-44.3-40.1-74.6-95.8-99.1-178.8c-27.9-94.7-47.4-226.1-63.6-445.3c-9.8-132.1-7.7-346.1,7-461.1
		c21.9-171.5,107-257.9,289.5-290.4C490.9,89.9,605.4,79.2,714,73.8c87.1-5.9,230.4-8.8,310.5-8.1c80-0.7,223.4,2.2,310.5,8.1
		c108.6,5.4,223.1,16.1,308.2,31.3c182.5,32.5,267.6,118.9,289.5,290.4C1947.4,510.5,1949.4,724.5,1939.7,856.6z"/>
</g>
</svg>
